<?xml version="1.0" standalone="no"?>
<!DOCTYPE svg PUBLIC "-//W3C//DTD SVG 20010904//EN"
 "http://www.w3.org/TR/2001/REC-SVG-20010904/DTD/svg10.dtd">
<svg version="1.0" xmlns="http://www.w3.org/2000/svg"
 width="500.000000pt" height="500.000000pt" viewBox="0 0 500.000000 500.000000"
 preserveAspectRatio="xMidYMid meet">
<metadata>
Created by potrace 1.14, written by Peter Selinger 2001-2017
</metadata>
<g transform="translate(0.000000,500.000000) scale(0.100000,-0.100000)"
fill="#000000" stroke="none">
<path d="M765 4485 c-92 -23 -122 -40 -206 -113 -64 -56 -118 -155 -135 -246
-3 -17 -6 -517 -6 -1111 1 -1046 1 -1082 20 -1142 49 -155 168 -266 329 -308
46 -12 133 -15 440 -15 l383 0 -1 50 -2 50 -96 0 c-53 1 -224 1 -381 1 -246 1
-293 4 -343 19 -106 33 -202 131 -233 237 -8 28 -16 96 -16 150 l-1 98 633 3
634 2 27 26 c15 15 45 37 66 50 21 13 36 24 33 24 -3 1 -317 2 -697 2 l-693 1
-1 26 c0 14 -1 424 -1 911 0 654 3 897 12 930 34 130 141 231 272 259 25 5
750 8 1723 7 1548 -2 1683 -4 1724 -19 110 -43 201 -145 227 -257 4 -19 8
-445 8 -946 l1 -912 -697 2 c-384 0 -698 -1 -698 -4 0 -3 15 -13 33 -23 18
-10 47 -31 64 -47 l32 -30 633 -2 633 -3 0 -85 c1 -173 -50 -287 -163 -358
-90 -57 -116 -60 -504 -61 -194 0 -364 0 -378 -1 -23 0 -25 -4 -27 -50 l-1
-50 387 0 c410 1 441 4 536 50 57 28 155 121 188 180 63 112 59 37 59 1240 1
830 -2 1106 -12 1140 -43 161 -191 300 -353 331 -30 5 -707 9 -1726 8 -1330
-1 -1686 -3 -1726 -14z"/>
<path d="M2195 3880 c-32 -13 -66 -55 -74 -92 -4 -18 -7 -231 -6 -473 1 -486
0 -479 64 -522 40 -27 80 -29 124 -7 18 9 193 113 390 231 220 132 364 225
375 241 22 34 22 110 0 144 -11 17 -155 109 -375 241 -197 118 -372 222 -390
231 -34 17 -76 20 -108 6z m197 -175 c79 -47 150 -89 158 -95 8 -5 42 -25 75
-45 33 -19 77 -45 97 -58 20 -12 87 -51 147 -87 61 -36 113 -71 116 -79 3 -8
-2 -22 -12 -32 -15 -14 -647 -395 -709 -427 -47 -24 -47 -23 -47 448 0 370 2
443 14 451 8 5 15 9 16 9 1 0 66 -38 145 -85z"/>
<path d="M2426 2452 c-30 -10 -65 -32 -91 -57 -36 -36 -48 -42 -89 -43 -107
-4 -195 -92 -201 -199 -1 -17 -12 -26 -36 -30 -59 -9 -129 -70 -151 -130 -11
-31 -32 -41 -72 -34 -16 3 -46 -32 -46 -55 0 -36 31 -50 104 -49 71 2 96 15
96 52 0 29 21 72 47 95 22 20 48 23 110 13 54 -10 69 13 54 83 -8 39 -7 54 8
88 24 53 65 72 122 55 47 -14 58 -9 98 46 17 23 41 49 54 58 59 38 152 9 193
-60 30 -53 43 -58 99 -43 35 10 49 9 69 -2 48 -25 75 -96 55 -147 -22 -59 15
-94 82 -75 68 18 129 -35 129 -113 0 -37 31 -52 104 -50 74 2 96 15 96 56 0
32 -23 44 -86 48 -15 1 -24 10 -29 29 -14 59 -90 125 -154 135 -27 4 -32 10
-38 48 -7 50 -19 74 -54 113 -39 44 -86 66 -146 66 -37 0 -48 5 -74 34 -61 71
-161 97 -253 68z"/>
<path d="M2466 2144 c-9 -8 -16 -24 -16 -34 0 -37 27 -50 104 -50 43 0 77 5
84 12 19 19 15 66 -7 78 -32 16 -147 13 -165 -6z"/>
<path d="M2265 1943 c-21 -21 -18 -59 5 -76 30 -21 150 -15 167 9 18 24 16 49
-3 65 -24 20 -150 21 -169 2z"/>
<path d="M1821 1748 c-51 -26 -81 -74 -81 -129 0 -20 6 -74 14 -120 8 -46 22
-135 31 -197 9 -62 18 -121 20 -130 1 -9 6 -37 9 -62 3 -25 8 -54 10 -65 2
-11 7 -40 10 -65 3 -25 8 -54 10 -65 4 -21 15 -93 21 -135 12 -85 16 -108 20
-130 2 -14 7 -43 10 -65 16 -114 54 -175 136 -220 l54 -30 394 -3 c454 -3 469
-1 547 74 55 54 71 94 88 224 3 25 8 56 10 70 3 14 7 41 10 60 14 92 18 117
22 140 2 14 6 43 9 65 3 22 12 80 21 129 8 50 17 108 20 130 2 23 9 66 14 96
6 30 12 78 15 105 3 28 8 57 10 65 7 24 18 113 17 133 -2 43 -26 89 -60 115
l-35 27 -651 3 -651 2 -44 -22z m390 -85 c1 -5 3 -30 4 -58 2 -27 6 -102 9
-165 11 -184 16 -278 21 -395 3 -60 7 -141 10 -180 2 -38 6 -128 10 -200 3
-71 8 -153 10 -181 l5 -50 -68 -2 c-142 -3 -199 41 -217 169 -8 56 -11 74 -29
184 -8 50 -17 112 -21 138 -4 27 -8 58 -10 69 -3 11 -6 39 -9 62 -3 22 -12 82
-20 131 -14 82 -24 146 -31 200 -5 37 -15 101 -19 121 -17 87 -17 126 0 145
16 17 32 19 186 19 92 0 169 -3 169 -7z m472 -9 c-1 -6 -5 -82 -9 -170 -3 -87
-7 -179 -9 -204 -2 -25 -6 -110 -10 -190 -3 -80 -8 -174 -10 -210 -2 -36 -7
-121 -10 -190 -7 -128 -12 -213 -14 -241 -1 -13 -19 -16 -121 -16 l-120 -1 -2
32 c0 17 -2 51 -3 76 -1 25 -6 104 -9 175 -4 72 -9 168 -11 215 -2 47 -7 132
-10 190 -9 152 -13 226 -20 398 l-7 152 184 -2 c125 -2 182 -6 181 -14z m462
-1 c19 -19 17 -59 -11 -223 -10 -58 -13 -73 -18 -110 -22 -148 -37 -248 -40
-265 -2 -11 -7 -42 -10 -70 -4 -27 -14 -93 -22 -145 -8 -52 -17 -108 -20 -125
-2 -16 -6 -41 -9 -55 -2 -14 -7 -45 -10 -70 -8 -52 -24 -87 -57 -118 -33 -30
-71 -40 -154 -38 l-69 1 1 30 c3 50 15 297 19 355 1 30 6 118 9 195 4 77 9
169 11 205 2 36 7 124 11 195 4 72 8 146 9 165 1 19 3 47 4 63 l1 27 169 0
c145 0 172 -2 186 -17z"/>
</g>
</svg>
